<svg width="453" height="568" viewBox="0 0 453 568" fill="none" xmlns="http://www.w3.org/2000/svg">
<path d="M452.014 540H451.982C451.474 555.553 439.141 568 424 568C408.859 568 396.526 555.553 396.018 540H395.981C395.463 555.553 382.911 568 367.5 568C352.089 568 339.537 555.553 339.019 540H338.982C338.474 555.553 326.141 568 311 568C295.859 568 283.526 555.553 283.018 540H282.981C282.463 555.553 269.911 568 254.5 568C239.089 568 226.537 555.553 226.019 540H225.982C225.474 555.553 213.141 568 198 568C182.859 568 170.526 555.553 170.018 540H169.981C169.463 555.553 156.911 568 141.5 568C126.089 568 113.537 555.553 113.019 540H112.981C112.463 555.553 99.9112 568 84.5 568C69.0888 568 56.5365 555.553 56.0186 540H55.9824C55.4735 555.553 43.1408 568 28 568C12.8592 568 0.526467 555.553 0.0175781 540H0.0136719V539.881C0.00524462 539.588 0 539.295 0 539C0 538.705 0.00522594 538.411 0.0136719 538.118V0H452.014V540Z" fill="white"/>
</svg>
