<svg width="444" height="557" viewBox="0 0 444 557" fill="none" xmlns="http://www.w3.org/2000/svg">
<path d="M443.014 535H443C443 547.15 433.15 557 421 557C408.85 557 399 547.15 399 535C399 547.15 389.15 557 377 557C364.85 557 355 547.15 355 535C355 547.15 344.926 557 332.5 557C320.074 557 310 547.15 310 535C310 547.15 300.15 557 288 557C275.85 557 266 547.15 266 535C266 547.15 255.926 557 243.5 557C232.697 557 223.673 549.555 221.5 539.626C219.327 549.555 210.303 557 199.5 557C187.074 557 177 547.15 177 535C177 547.15 167.15 557 155 557C142.85 557 133 547.15 133 535C133 547.15 122.926 557 110.5 557C98.0736 557 88 547.15 88 535C88 547.15 78.1503 557 66 557C53.8497 557 44 547.15 44 535C44 547.15 34.1503 557 22 557C9.84974 557 0 547.15 0 535C2.71519e-06 534.75 0.00539279 534.501 0.0136719 534.253V0H443.014V535Z" fill="#F2F2F2"/>
</svg>
