<svg width="345" height="445" viewBox="0 0 345 445" fill="none" xmlns="http://www.w3.org/2000/svg">
<path d="M172.5 0C267.769 0 345 77.2309 345 172.5C345 174.172 344.973 175.839 344.926 177.5H345V267.5C345 267.8 344.981 268.097 344.949 268.389C344.981 269.755 345 271.126 345 272.5C345 367.769 267.769 445 172.5 445C77.2309 445 0 367.769 0 272.5C0 271.126 0.0178413 269.755 0.0498047 268.389C0.0175499 268.097 0 267.8 0 267.5V177.5H0.0742188C0.0269422 175.839 0 174.172 0 172.5C0 77.2309 77.2309 0 172.5 0Z" fill="white"/>
</svg>
