<svg width="368" height="357" viewBox="0 0 368 357" fill="none" xmlns="http://www.w3.org/2000/svg">
<path fill-rule="evenodd" clip-rule="evenodd" d="M179.457 0.0648419C209.966 -1.33927 235.191 20.3843 261.876 33.8133C287.333 46.6248 318.084 55.1134 333.366 77.5208C348.559 99.7971 338.382 128.767 344.124 154.41C349.709 179.355 373.03 202.135 366.827 226.961C360.624 251.78 328.239 262.979 311.825 283.66C294.417 305.595 293.694 340.36 267.082 352.641C240.612 364.856 209.174 345.42 179.457 344.743C150.559 344.085 120.41 359.175 93.9349 348.696C67.4894 338.229 55.6093 310.783 39.2998 289.268C23.8776 268.924 3.70266 249.724 0.359408 225.256C-2.93752 201.127 17.4388 179.792 21.0492 155.7C25.0685 128.88 6.80993 98.4335 22.7959 75.5394C38.4481 53.1233 75.094 53.6922 100.987 41.2178C128.013 28.1974 148.864 1.4728 179.457 0.0648419Z" fill="white"/>
</svg>
